<svg width="26" height="28" viewBox="0 0 26 28" fill="none" xmlns="http://www.w3.org/2000/svg">
<path d="M14.125 16.33C14.5 16.155 14.663 15.709 14.488 15.333L12.733 11.571C12.558 11.196 12.113 11.033 11.737 11.208L3.69399 14.958C3.31899 15.134 3.15699 15.58 3.33199 15.955L8.56499 27.18C8.70299 27.475 9.01499 27.648 9.33899 27.607L9.83399 27.544C12.243 27.21 15.006 26.466 17.331 25.382C21.369 23.499 23.95 21.076 25.166 18.036C26.328 15.06 26.106 11.558 24.562 8.246C21.152 1.017 13.748 -1.083 6.04199 2.51C3.50199 3.695 1.37899 5.225 0.271992 6.505C0.0319917 6.783 0.0279916 7.193 0.261992 7.475L3.10199 10.886C3.39799 11.243 3.94499 11.247 4.24699 10.895C5.24899 9.725 6.50999 8.797 8.56599 7.838C12.566 5.973 16.097 7.026 17.96 11.021C19.794 14.955 18.504 18.446 14.756 20.194C14.093 20.503 13.456 20.737 13.006 20.857L11.472 17.568L14.125 16.331V16.33ZM11.691 12.885L12.811 15.288L10.159 16.525C9.78299 16.7 9.62099 17.145 9.79599 17.521L11.89 22.011C12.018 22.286 12.3 22.457 12.604 22.443C13.211 22.415 14.274 22.073 15.39 21.553C19.885 19.456 21.505 15.073 19.32 10.386C17.089 5.602 12.65 4.278 7.93199 6.478C6.06199 7.349 4.75599 8.228 3.70899 9.27L1.84199 7.027C2.89399 6.005 4.63199 4.822 6.67599 3.869C13.673 0.606001 20.169 2.449 23.204 8.882C24.58 11.833 24.775 14.912 23.771 17.484C22.711 20.13 20.413 22.289 16.697 24.022C14.539 25.028 11.942 25.731 9.69299 26.048L5.00799 16.001L11.691 12.885V12.885Z" fill="#5614BB"/>
</svg>
